<?xml version="1.0" encoding="utf-8"?>
<!-- Generator: Adobe Illustrator 15.1.0, SVG Export Plug-In . SVG Version: 6.00 Build 0)  -->
<!DOCTYPE svg PUBLIC "-//W3C//DTD SVG 1.1//EN" "http://www.w3.org/Graphics/SVG/1.1/DTD/svg11.dtd">
<svg version="1.1" id="Layer_2" xmlns="http://www.w3.org/2000/svg" xmlns:xlink="http://www.w3.org/1999/xlink" x="0px" y="0px"
	 width="512px" height="512px" viewBox="0 0 512 512" enable-background="new 0 0 512 512" xml:space="preserve">
<path fill="#FFFFFF" d="M255.934,0.08C114.632,0.08,0.095,114.663,0.095,255.956s114.536,255.838,255.839,255.838
	c141.299,0,255.799-114.545,255.799-255.838S397.233,0.08,255.934,0.08z M178.961,404.99h-64V180.995h64V404.99z M146.961,148.995
	c-17.673,0-32-14.327-32-32s14.327-32,32-32s32,14.327,32,32S164.634,148.995,146.961,148.995z M402.963,404.99h-64v-128
	c0-17.673-14.326-31.995-32-31.995c-17.673,0-32,14.322-32,31.995v128h-64.001V180.995h64.001v39.735
	c13.199-18.132,33.377-39.735,56-39.735c39.766,0,72,35.816,72,79.995V404.99z"/>
</svg>
