<?xml version="1.0" encoding="utf-8"?>
<!-- Generator: Adobe Illustrator 15.1.0, SVG Export Plug-In . SVG Version: 6.00 Build 0)  -->
<!DOCTYPE svg PUBLIC "-//W3C//DTD SVG 1.1//EN" "http://www.w3.org/Graphics/SVG/1.1/DTD/svg11.dtd">
<svg version="1.1" id="Layer_1" xmlns="http://www.w3.org/2000/svg" xmlns:xlink="http://www.w3.org/1999/xlink" x="0px" y="0px"
	 width="512px" height="512px" viewBox="0 0 512 512" enable-background="new 0 0 512 512" xml:space="preserve">
<path fill="#585858" d="M437.02,74.981C485.371,123.333,512,187.621,512,256.001S485.371,388.668,437.02,437.02
	C388.668,485.369,324.382,512,256,512c-68.38,0-132.667-26.631-181.02-74.98C26.629,388.668,0,324.381,0,256.001
	S26.627,123.333,74.98,74.981C123.333,26.629,187.62,0,256,0C324.382,0,388.668,26.629,437.02,74.981z M414.392,414.393
	c31.529-31.53,52.493-70.804,61.136-113.531c-6.737,9.918-13.181,13.599-17.172-8.603c-4.11-36.195-37.354-13.074-58.258-25.93
	c-22.002,14.827-71.453-28.831-63.049,20.41c12.967,22.213,70.004-29.725,41.573,17.271
	c-18.138,32.808-66.32,105.466-60.054,143.129c0.791,54.872-56.067,11.44-75.657-6.76c-13.178-36.46-4.491-100.188-38.949-118.043
	c-37.399-1.624-69.502-5.023-83.997-46.835c-8.723-29.914,9.282-74.447,41.341-81.322c46.925-29.483,63.687,34.527,107.693,35.717
	c13.664-14.297,50.908-18.843,53.998-34.875c-28.877-5.095,36.634-24.277-2.766-35.189c-21.735,2.556-35.739,22.537-24.185,39.479
	c-42.118,9.821-43.469-60.952-83.954-38.629c-1.029,35.295-66.111,11.443-22.52,4.286c14.979-6.544-24.43-25.508-3.14-22.062
	c10.458-0.566,45.666-12.904,36.138-21.199c19.605-12.17,36.08,29.145,55.271-0.941c13.854-23.133-5.812-27.404-23.177-15.678
	c-9.79-10.962,17.285-34.64,41.166-44.869c7.959-3.41,15.562-5.27,21.373-4.742c12.029,13.896,34.275,16.303,35.439-1.671
	C322.855,39.537,290.01,32,256,32c-48.811,0-95.233,15.512-133.652,44.193c10.323,4.73,16.186,10.619,6.237,18.148
	c-7.728,23.027-39.085,53.938-66.61,49.562c-14.293,24.648-23.706,51.805-27.73,80.266c23.056,7.628,28.372,22.725,23.418,27.773
	c-11.748,10.244-18.968,24.767-22.688,40.661c7.505,45.918,29.086,88.238,62.635,121.788C139.916,456.698,196.167,480,256,480
	C315.832,480,372.084,456.698,414.392,414.393z"/>
</svg>
